<?xml version="1.0" standalone="no"?><!DOCTYPE svg PUBLIC "-//W3C//DTD SVG 1.1//EN" "http://www.w3.org/Graphics/SVG/1.1/DTD/svg11.dtd"><svg t="1783394772998" class="icon" viewBox="0 0 1024 1024" version="1.1" xmlns="http://www.w3.org/2000/svg" p-id="15775" xmlns:xlink="http://www.w3.org/1999/xlink" width="200" height="200"><path d="M851.382857 121.904762H172.617143A123.855238 123.855238 0 0 0 48.761905 245.76v581.241905A123.855238 123.855238 0 0 0 172.617143 950.857143h678.765714A123.855238 123.855238 0 0 0 975.238095 827.001905V245.76A123.855238 123.855238 0 0 0 851.382857 121.904762zM172.617143 170.666667h678.765714A75.093333 75.093333 0 0 1 926.47619 245.76v376.441905l-100.205714-96.304762a61.44 61.44 0 0 0-85.577143 0l-108.982857 105.813333a12.921905 12.921905 0 0 1-17.798095 0L414.47619 438.857143a61.44 61.44 0 0 0-85.820952 0l-224.060952 219.428571H97.52381V245.76A75.093333 75.093333 0 0 1 172.617143 170.666667z" fill="#cdcdcd" p-id="15776"></path><path d="M609.52381 353.28a84.358095 84.358095 0 0 1-18.041905 52.175238 11.702857 11.702857 0 0 0 3.657143 17.554286 77.04381 77.04381 0 0 0 36.327619 9.264762 78.994286 78.994286 0 0 0 18.773333-155.794286 77.287619 77.287619 0 0 0-55.344762 7.070476 11.702857 11.702857 0 0 0-3.657143 17.554286 84.114286 84.114286 0 0 1 18.285715 52.175238z" fill="#cdcdcd" p-id="15777"></path></svg>